<mxfile host="app.diagrams.net" modified="2024-07-09T05:55:13.927Z" agent="Mozilla/5.0 (X11; Ubuntu; Linux x86_64; rv:125.0) Gecko/20100101 Firefox/125.0" etag="mBuXH5Ch6j_L_htzzDdB" version="24.4.4" type="github">
  <diagram name="Page-1" id="ByGFvIx0IGY0nGWpCWUn">
    <mxGraphModel dx="1006" dy="721" grid="1" gridSize="10" guides="1" tooltips="1" connect="1" arrows="1" fold="1" page="1" pageScale="1" pageWidth="827" pageHeight="1169" math="0" shadow="0">
      <root>
        <mxCell id="0" />
        <mxCell id="1" parent="0" />
        <mxCell id="eoF8KbbVxJdz4AYGsX7u-155" style="edgeStyle=orthogonalEdgeStyle;rounded=0;orthogonalLoop=1;jettySize=auto;html=1;exitX=0;exitY=0.5;exitDx=0;exitDy=0;exitPerimeter=0;entryX=0.5;entryY=1;entryDx=0;entryDy=0;" parent="1" source="eoF8KbbVxJdz4AYGsX7u-15" target="eoF8KbbVxJdz4AYGsX7u-98" edge="1">
          <mxGeometry relative="1" as="geometry" />
        </mxCell>
        <mxCell id="eoF8KbbVxJdz4AYGsX7u-15" value="" style="verticalLabelPosition=bottom;html=1;verticalAlign=top;align=center;strokeColor=none;fillColor=#00BEF2;shape=mxgraph.azure.computer;pointerEvents=1;" parent="1" vertex="1">
          <mxGeometry x="440" y="1000" width="50" height="45" as="geometry" />
        </mxCell>
        <mxCell id="eoF8KbbVxJdz4AYGsX7u-16" value="" style="sketch=0;outlineConnect=0;fontColor=#232F3E;gradientColor=none;fillColor=#232F3D;strokeColor=none;dashed=0;verticalLabelPosition=bottom;verticalAlign=top;align=center;html=1;fontSize=12;fontStyle=0;aspect=fixed;pointerEvents=1;shape=mxgraph.aws4.traditional_server;" parent="1" vertex="1">
          <mxGeometry x="157.5" y="200" width="45" height="78" as="geometry" />
        </mxCell>
        <mxCell id="eoF8KbbVxJdz4AYGsX7u-34" value="&lt;font face=&quot;Courier New&quot;&gt;mcast-client01&lt;/font&gt;" style="text;html=1;align=left;verticalAlign=middle;whiteSpace=wrap;rounded=0;" parent="1" vertex="1">
          <mxGeometry x="495" y="1000" width="130" height="30" as="geometry" />
        </mxCell>
        <mxCell id="eoF8KbbVxJdz4AYGsX7u-36" value="&lt;font face=&quot;Courier New&quot;&gt;.1&lt;/font&gt;" style="text;html=1;align=left;verticalAlign=middle;whiteSpace=wrap;rounded=0;" parent="1" vertex="1">
          <mxGeometry x="380" y="940" width="30" height="30" as="geometry" />
        </mxCell>
        <mxCell id="eoF8KbbVxJdz4AYGsX7u-39" value="&lt;font face=&quot;Courier New&quot;&gt;s-router01&lt;/font&gt;" style="text;html=1;align=left;verticalAlign=middle;whiteSpace=wrap;rounded=0;" parent="1" vertex="1">
          <mxGeometry x="442.32000000000005" y="880" width="80" height="30" as="geometry" />
        </mxCell>
        <mxCell id="eoF8KbbVxJdz4AYGsX7u-43" value="&lt;font face=&quot;Courier New&quot;&gt;mpls-p01&lt;/font&gt;" style="text;html=1;align=left;verticalAlign=middle;whiteSpace=wrap;rounded=0;" parent="1" vertex="1">
          <mxGeometry x="442.32000000000005" y="720" width="70" height="30" as="geometry" />
        </mxCell>
        <mxCell id="eoF8KbbVxJdz4AYGsX7u-44" value="&lt;font face=&quot;Courier New&quot;&gt;17&lt;/font&gt;" style="text;html=1;align=left;verticalAlign=middle;whiteSpace=wrap;rounded=0;" parent="1" vertex="1">
          <mxGeometry x="455" y="1007.5" width="20" height="30" as="geometry" />
        </mxCell>
        <mxCell id="eoF8KbbVxJdz4AYGsX7u-55" value="&lt;font face=&quot;Courier New&quot;&gt;mpls-p02&lt;/font&gt;" style="text;html=1;align=left;verticalAlign=middle;whiteSpace=wrap;rounded=0;" parent="1" vertex="1">
          <mxGeometry x="650" y="490" width="70" height="30" as="geometry" />
        </mxCell>
        <mxCell id="eoF8KbbVxJdz4AYGsX7u-56" value="&lt;font face=&quot;Courier New&quot;&gt;mpls-p03&lt;/font&gt;" style="text;html=1;align=left;verticalAlign=middle;whiteSpace=wrap;rounded=0;" parent="1" vertex="1">
          <mxGeometry x="50" y="490" width="70" height="30" as="geometry" />
        </mxCell>
        <mxCell id="eoF8KbbVxJdz4AYGsX7u-64" value="&lt;font face=&quot;Courier New&quot;&gt;n-router01&lt;/font&gt;" style="text;html=1;align=left;verticalAlign=middle;whiteSpace=wrap;rounded=0;" parent="1" vertex="1">
          <mxGeometry x="40" y="350" width="80" height="30" as="geometry" />
        </mxCell>
        <mxCell id="eoF8KbbVxJdz4AYGsX7u-65" value="&lt;font face=&quot;Courier New&quot;&gt;n-router02&lt;/font&gt;" style="text;html=1;align=left;verticalAlign=middle;whiteSpace=wrap;rounded=0;" parent="1" vertex="1">
          <mxGeometry x="645" y="350" width="90" height="30" as="geometry" />
        </mxCell>
        <mxCell id="eoF8KbbVxJdz4AYGsX7u-66" value="&lt;font face=&quot;Courier New&quot;&gt;mcast-server02&lt;/font&gt;" style="text;html=1;align=left;verticalAlign=middle;whiteSpace=wrap;rounded=0;" parent="1" vertex="1">
          <mxGeometry x="605" y="200" width="115" height="30" as="geometry" />
        </mxCell>
        <mxCell id="eoF8KbbVxJdz4AYGsX7u-72" value="" style="group" parent="1" vertex="1" connectable="0">
          <mxGeometry x="322.32" y="720" width="120" height="60" as="geometry" />
        </mxCell>
        <mxCell id="eoF8KbbVxJdz4AYGsX7u-80" value="" style="group" parent="eoF8KbbVxJdz4AYGsX7u-72" vertex="1" connectable="0">
          <mxGeometry width="120" height="60" as="geometry" />
        </mxCell>
        <mxCell id="eoF8KbbVxJdz4AYGsX7u-73" value="" style="rounded=0;whiteSpace=wrap;html=1;" parent="eoF8KbbVxJdz4AYGsX7u-80" vertex="1">
          <mxGeometry width="120" height="60" as="geometry" />
        </mxCell>
        <mxCell id="eoF8KbbVxJdz4AYGsX7u-74" value="" style="sketch=0;points=[[0.5,0,0],[1,0.5,0],[0.5,1,0],[0,0.5,0],[0.145,0.145,0],[0.8555,0.145,0],[0.855,0.8555,0],[0.145,0.855,0]];verticalLabelPosition=bottom;html=1;verticalAlign=top;aspect=fixed;align=center;pointerEvents=1;shape=mxgraph.cisco19.rect;prIcon=router;fillColor=#FAFAFA;strokeColor=#005073;" parent="eoF8KbbVxJdz4AYGsX7u-80" vertex="1">
          <mxGeometry x="41.25" y="11.25" width="32.14285714285714" height="32.14285714285714" as="geometry" />
        </mxCell>
        <mxCell id="eoF8KbbVxJdz4AYGsX7u-46" value="&lt;font face=&quot;Courier New&quot;&gt;19&lt;/font&gt;" style="text;html=1;align=left;verticalAlign=middle;whiteSpace=wrap;rounded=0;" parent="eoF8KbbVxJdz4AYGsX7u-80" vertex="1">
          <mxGeometry x="100" width="20" height="30" as="geometry" />
        </mxCell>
        <mxCell id="eoF8KbbVxJdz4AYGsX7u-81" value="" style="group" parent="1" vertex="1" connectable="0">
          <mxGeometry x="120" y="490" width="120" height="60" as="geometry" />
        </mxCell>
        <mxCell id="eoF8KbbVxJdz4AYGsX7u-82" value="" style="rounded=0;whiteSpace=wrap;html=1;" parent="eoF8KbbVxJdz4AYGsX7u-81" vertex="1">
          <mxGeometry width="120" height="60" as="geometry" />
        </mxCell>
        <mxCell id="eoF8KbbVxJdz4AYGsX7u-83" value="" style="sketch=0;points=[[0.5,0,0],[1,0.5,0],[0.5,1,0],[0,0.5,0],[0.145,0.145,0],[0.8555,0.145,0],[0.855,0.8555,0],[0.145,0.855,0]];verticalLabelPosition=bottom;html=1;verticalAlign=top;aspect=fixed;align=center;pointerEvents=1;shape=mxgraph.cisco19.rect;prIcon=router;fillColor=#FAFAFA;strokeColor=#005073;" parent="eoF8KbbVxJdz4AYGsX7u-81" vertex="1">
          <mxGeometry x="41.25" y="11.25" width="32.14285714285714" height="32.14285714285714" as="geometry" />
        </mxCell>
        <mxCell id="eoF8KbbVxJdz4AYGsX7u-57" value="&lt;font face=&quot;Courier New&quot;&gt;21&lt;/font&gt;" style="text;html=1;align=left;verticalAlign=middle;whiteSpace=wrap;rounded=0;" parent="eoF8KbbVxJdz4AYGsX7u-81" vertex="1">
          <mxGeometry x="100" width="20" height="30" as="geometry" />
        </mxCell>
        <mxCell id="eoF8KbbVxJdz4AYGsX7u-84" value="" style="group" parent="1" vertex="1" connectable="0">
          <mxGeometry x="520" y="490" width="120" height="60" as="geometry" />
        </mxCell>
        <mxCell id="eoF8KbbVxJdz4AYGsX7u-85" value="" style="rounded=0;whiteSpace=wrap;html=1;" parent="eoF8KbbVxJdz4AYGsX7u-84" vertex="1">
          <mxGeometry width="120" height="60" as="geometry" />
        </mxCell>
        <mxCell id="eoF8KbbVxJdz4AYGsX7u-86" value="" style="sketch=0;points=[[0.5,0,0],[1,0.5,0],[0.5,1,0],[0,0.5,0],[0.145,0.145,0],[0.8555,0.145,0],[0.855,0.8555,0],[0.145,0.855,0]];verticalLabelPosition=bottom;html=1;verticalAlign=top;aspect=fixed;align=center;pointerEvents=1;shape=mxgraph.cisco19.rect;prIcon=router;fillColor=#FAFAFA;strokeColor=#005073;" parent="eoF8KbbVxJdz4AYGsX7u-84" vertex="1">
          <mxGeometry x="41.25" y="11.25" width="32.14285714285714" height="32.14285714285714" as="geometry" />
        </mxCell>
        <mxCell id="eoF8KbbVxJdz4AYGsX7u-51" value="&lt;font face=&quot;Courier New&quot;&gt;20&lt;/font&gt;" style="text;html=1;align=left;verticalAlign=middle;whiteSpace=wrap;rounded=0;" parent="eoF8KbbVxJdz4AYGsX7u-84" vertex="1">
          <mxGeometry x="100" width="20" height="30" as="geometry" />
        </mxCell>
        <mxCell id="eoF8KbbVxJdz4AYGsX7u-90" value="" style="group" parent="1" vertex="1" connectable="0">
          <mxGeometry x="120" y="350" width="120" height="60" as="geometry" />
        </mxCell>
        <mxCell id="eoF8KbbVxJdz4AYGsX7u-91" value="" style="rounded=0;whiteSpace=wrap;html=1;" parent="eoF8KbbVxJdz4AYGsX7u-90" vertex="1">
          <mxGeometry width="120" height="60" as="geometry" />
        </mxCell>
        <mxCell id="eoF8KbbVxJdz4AYGsX7u-92" value="" style="sketch=0;points=[[0.5,0,0],[1,0.5,0],[0.5,1,0],[0,0.5,0],[0.145,0.145,0],[0.8555,0.145,0],[0.855,0.8555,0],[0.145,0.855,0]];verticalLabelPosition=bottom;html=1;verticalAlign=top;aspect=fixed;align=center;pointerEvents=1;shape=mxgraph.cisco19.rect;prIcon=router;fillColor=#FAFAFA;strokeColor=#005073;" parent="eoF8KbbVxJdz4AYGsX7u-90" vertex="1">
          <mxGeometry x="41.25" y="11.25" width="32.14285714285714" height="32.14285714285714" as="geometry" />
        </mxCell>
        <mxCell id="eoF8KbbVxJdz4AYGsX7u-62" value="&lt;font face=&quot;Courier New&quot;&gt;22&lt;/font&gt;" style="text;html=1;align=left;verticalAlign=middle;whiteSpace=wrap;rounded=0;" parent="eoF8KbbVxJdz4AYGsX7u-90" vertex="1">
          <mxGeometry x="100" width="20" height="30" as="geometry" />
        </mxCell>
        <mxCell id="eoF8KbbVxJdz4AYGsX7u-93" value="" style="group" parent="1" vertex="1" connectable="0">
          <mxGeometry x="520" y="350" width="120" height="60" as="geometry" />
        </mxCell>
        <mxCell id="eoF8KbbVxJdz4AYGsX7u-94" value="" style="rounded=0;whiteSpace=wrap;html=1;" parent="eoF8KbbVxJdz4AYGsX7u-93" vertex="1">
          <mxGeometry width="120" height="60" as="geometry" />
        </mxCell>
        <mxCell id="eoF8KbbVxJdz4AYGsX7u-95" value="" style="sketch=0;points=[[0.5,0,0],[1,0.5,0],[0.5,1,0],[0,0.5,0],[0.145,0.145,0],[0.8555,0.145,0],[0.855,0.8555,0],[0.145,0.855,0]];verticalLabelPosition=bottom;html=1;verticalAlign=top;aspect=fixed;align=center;pointerEvents=1;shape=mxgraph.cisco19.rect;prIcon=router;fillColor=#FAFAFA;strokeColor=#005073;" parent="eoF8KbbVxJdz4AYGsX7u-93" vertex="1">
          <mxGeometry x="41.25" y="11.25" width="32.14285714285714" height="32.14285714285714" as="geometry" />
        </mxCell>
        <mxCell id="eoF8KbbVxJdz4AYGsX7u-63" value="&lt;font face=&quot;Courier New&quot;&gt;23&lt;/font&gt;" style="text;html=1;align=left;verticalAlign=middle;whiteSpace=wrap;rounded=0;" parent="eoF8KbbVxJdz4AYGsX7u-93" vertex="1">
          <mxGeometry x="100" width="20" height="30" as="geometry" />
        </mxCell>
        <mxCell id="eoF8KbbVxJdz4AYGsX7u-96" value="" style="group" parent="1" vertex="1" connectable="0">
          <mxGeometry x="322.32" y="880" width="120.00000000000006" height="60" as="geometry" />
        </mxCell>
        <mxCell id="eoF8KbbVxJdz4AYGsX7u-97" value="" style="group" parent="eoF8KbbVxJdz4AYGsX7u-96" vertex="1" connectable="0">
          <mxGeometry width="120.00000000000006" height="60" as="geometry" />
        </mxCell>
        <mxCell id="eoF8KbbVxJdz4AYGsX7u-98" value="" style="rounded=0;whiteSpace=wrap;html=1;" parent="eoF8KbbVxJdz4AYGsX7u-97" vertex="1">
          <mxGeometry width="120" height="60" as="geometry" />
        </mxCell>
        <mxCell id="eoF8KbbVxJdz4AYGsX7u-99" value="" style="sketch=0;points=[[0.5,0,0],[1,0.5,0],[0.5,1,0],[0,0.5,0],[0.145,0.145,0],[0.8555,0.145,0],[0.855,0.8555,0],[0.145,0.855,0]];verticalLabelPosition=bottom;html=1;verticalAlign=top;aspect=fixed;align=center;pointerEvents=1;shape=mxgraph.cisco19.rect;prIcon=router;fillColor=#FAFAFA;strokeColor=#005073;" parent="eoF8KbbVxJdz4AYGsX7u-97" vertex="1">
          <mxGeometry x="41.25" y="11.25" width="32.14285714285714" height="32.14285714285714" as="geometry" />
        </mxCell>
        <mxCell id="eoF8KbbVxJdz4AYGsX7u-45" value="&lt;font face=&quot;Courier New&quot;&gt;18&lt;/font&gt;" style="text;html=1;align=left;verticalAlign=middle;whiteSpace=wrap;rounded=0;" parent="eoF8KbbVxJdz4AYGsX7u-97" vertex="1">
          <mxGeometry x="100.00000000000006" width="20" height="30" as="geometry" />
        </mxCell>
        <mxCell id="eoF8KbbVxJdz4AYGsX7u-110" value="&lt;font face=&quot;Courier New&quot;&gt;.11&lt;/font&gt;" style="text;html=1;align=left;verticalAlign=middle;whiteSpace=wrap;rounded=0;" parent="1" vertex="1">
          <mxGeometry x="414" y="1015" width="30" height="30" as="geometry" />
        </mxCell>
        <mxCell id="eoF8KbbVxJdz4AYGsX7u-111" value="&lt;font face=&quot;Courier New&quot;&gt;.12&lt;/font&gt;" style="text;html=1;align=left;verticalAlign=middle;whiteSpace=wrap;rounded=0;" parent="1" vertex="1">
          <mxGeometry x="330" y="1015" width="30" height="30" as="geometry" />
        </mxCell>
        <mxCell id="eoF8KbbVxJdz4AYGsX7u-112" value="&lt;font face=&quot;Courier New&quot;&gt;mcast-client02&lt;/font&gt;" style="text;html=1;align=left;verticalAlign=middle;whiteSpace=wrap;rounded=0;" parent="1" vertex="1">
          <mxGeometry x="170" y="1000" width="130" height="30" as="geometry" />
        </mxCell>
        <mxCell id="eoF8KbbVxJdz4AYGsX7u-115" value="&lt;font face=&quot;Courier New&quot;&gt;.2&lt;/font&gt;" style="text;html=1;align=left;verticalAlign=middle;whiteSpace=wrap;rounded=0;" parent="1" vertex="1">
          <mxGeometry x="382.5" y="850" width="25" height="30" as="geometry" />
        </mxCell>
        <mxCell id="eoF8KbbVxJdz4AYGsX7u-116" value="&lt;font face=&quot;Courier New&quot;&gt;.1&lt;/font&gt;" style="text;html=1;align=left;verticalAlign=middle;whiteSpace=wrap;rounded=0;" parent="1" vertex="1">
          <mxGeometry x="384" y="780" width="30" height="30" as="geometry" />
        </mxCell>
        <mxCell id="eoF8KbbVxJdz4AYGsX7u-117" value="" style="group" parent="1" vertex="1" connectable="0">
          <mxGeometry x="120" y="640" width="120" height="60" as="geometry" />
        </mxCell>
        <mxCell id="eoF8KbbVxJdz4AYGsX7u-118" value="" style="group" parent="eoF8KbbVxJdz4AYGsX7u-117" vertex="1" connectable="0">
          <mxGeometry width="120" height="60" as="geometry" />
        </mxCell>
        <mxCell id="eoF8KbbVxJdz4AYGsX7u-119" value="" style="rounded=0;whiteSpace=wrap;html=1;" parent="eoF8KbbVxJdz4AYGsX7u-118" vertex="1">
          <mxGeometry width="120" height="60" as="geometry" />
        </mxCell>
        <mxCell id="eoF8KbbVxJdz4AYGsX7u-120" value="" style="sketch=0;points=[[0.5,0,0],[1,0.5,0],[0.5,1,0],[0,0.5,0],[0.145,0.145,0],[0.8555,0.145,0],[0.855,0.8555,0],[0.145,0.855,0]];verticalLabelPosition=bottom;html=1;verticalAlign=top;aspect=fixed;align=center;pointerEvents=1;shape=mxgraph.cisco19.rect;prIcon=router;fillColor=#FAFAFA;strokeColor=#005073;" parent="eoF8KbbVxJdz4AYGsX7u-118" vertex="1">
          <mxGeometry x="41.25" y="11.25" width="32.14285714285714" height="32.14285714285714" as="geometry" />
        </mxCell>
        <mxCell id="eoF8KbbVxJdz4AYGsX7u-187" value="&lt;font face=&quot;Courier New&quot;&gt;26&lt;/font&gt;" style="text;html=1;align=left;verticalAlign=middle;whiteSpace=wrap;rounded=0;" parent="eoF8KbbVxJdz4AYGsX7u-118" vertex="1">
          <mxGeometry x="100" width="20" height="30" as="geometry" />
        </mxCell>
        <mxCell id="eoF8KbbVxJdz4AYGsX7u-122" style="edgeStyle=orthogonalEdgeStyle;rounded=0;orthogonalLoop=1;jettySize=auto;html=1;entryX=0.47;entryY=0.988;entryDx=0;entryDy=0;entryPerimeter=0;startArrow=classic;startFill=1;" parent="1" source="eoF8KbbVxJdz4AYGsX7u-73" target="eoF8KbbVxJdz4AYGsX7u-119" edge="1">
          <mxGeometry relative="1" as="geometry" />
        </mxCell>
        <mxCell id="eoF8KbbVxJdz4AYGsX7u-124" value="10.10.13.0/24" style="edgeLabel;html=1;align=center;verticalAlign=middle;resizable=0;points=[];" parent="eoF8KbbVxJdz4AYGsX7u-122" vertex="1" connectable="0">
          <mxGeometry x="-0.106" y="1" relative="1" as="geometry">
            <mxPoint as="offset" />
          </mxGeometry>
        </mxCell>
        <mxCell id="eoF8KbbVxJdz4AYGsX7u-125" value="" style="group" parent="1" vertex="1" connectable="0">
          <mxGeometry x="520" y="640" width="120" height="60" as="geometry" />
        </mxCell>
        <mxCell id="eoF8KbbVxJdz4AYGsX7u-126" value="" style="rounded=0;whiteSpace=wrap;html=1;" parent="eoF8KbbVxJdz4AYGsX7u-125" vertex="1">
          <mxGeometry width="120" height="60" as="geometry" />
        </mxCell>
        <mxCell id="eoF8KbbVxJdz4AYGsX7u-127" value="" style="sketch=0;points=[[0.5,0,0],[1,0.5,0],[0.5,1,0],[0,0.5,0],[0.145,0.145,0],[0.8555,0.145,0],[0.855,0.8555,0],[0.145,0.855,0]];verticalLabelPosition=bottom;html=1;verticalAlign=top;aspect=fixed;align=center;pointerEvents=1;shape=mxgraph.cisco19.rect;prIcon=router;fillColor=#FAFAFA;strokeColor=#005073;" parent="eoF8KbbVxJdz4AYGsX7u-125" vertex="1">
          <mxGeometry x="41.25" y="11.25" width="32.14285714285714" height="32.14285714285714" as="geometry" />
        </mxCell>
        <mxCell id="eoF8KbbVxJdz4AYGsX7u-186" value="&lt;font face=&quot;Courier New&quot;&gt;25&lt;/font&gt;" style="text;html=1;align=left;verticalAlign=middle;whiteSpace=wrap;rounded=0;" parent="eoF8KbbVxJdz4AYGsX7u-125" vertex="1">
          <mxGeometry x="100" width="20" height="30" as="geometry" />
        </mxCell>
        <mxCell id="eoF8KbbVxJdz4AYGsX7u-129" style="edgeStyle=orthogonalEdgeStyle;rounded=0;orthogonalLoop=1;jettySize=auto;html=1;exitX=0.5;exitY=1;exitDx=0;exitDy=0;entryX=1;entryY=0.5;entryDx=0;entryDy=0;startArrow=classic;startFill=1;" parent="1" source="eoF8KbbVxJdz4AYGsX7u-126" target="eoF8KbbVxJdz4AYGsX7u-73" edge="1">
          <mxGeometry relative="1" as="geometry" />
        </mxCell>
        <mxCell id="eoF8KbbVxJdz4AYGsX7u-130" value="10.10.14.0/24" style="edgeLabel;html=1;align=center;verticalAlign=middle;resizable=0;points=[];" parent="eoF8KbbVxJdz4AYGsX7u-129" vertex="1" connectable="0">
          <mxGeometry x="0.0259" y="3" relative="1" as="geometry">
            <mxPoint as="offset" />
          </mxGeometry>
        </mxCell>
        <mxCell id="eoF8KbbVxJdz4AYGsX7u-131" style="edgeStyle=orthogonalEdgeStyle;rounded=0;orthogonalLoop=1;jettySize=auto;html=1;exitX=0.5;exitY=0;exitDx=0;exitDy=0;entryX=0.5;entryY=1;entryDx=0;entryDy=0;" parent="1" source="eoF8KbbVxJdz4AYGsX7u-126" target="eoF8KbbVxJdz4AYGsX7u-85" edge="1">
          <mxGeometry relative="1" as="geometry" />
        </mxCell>
        <mxCell id="eoF8KbbVxJdz4AYGsX7u-132" value="10.10.10.0/24" style="edgeLabel;html=1;align=center;verticalAlign=middle;resizable=0;points=[];" parent="eoF8KbbVxJdz4AYGsX7u-131" vertex="1" connectable="0">
          <mxGeometry x="0.1294" relative="1" as="geometry">
            <mxPoint as="offset" />
          </mxGeometry>
        </mxCell>
        <mxCell id="eoF8KbbVxJdz4AYGsX7u-133" style="edgeStyle=orthogonalEdgeStyle;rounded=0;orthogonalLoop=1;jettySize=auto;html=1;exitX=0.5;exitY=0;exitDx=0;exitDy=0;entryX=0.5;entryY=1;entryDx=0;entryDy=0;" parent="1" source="eoF8KbbVxJdz4AYGsX7u-119" target="eoF8KbbVxJdz4AYGsX7u-82" edge="1">
          <mxGeometry relative="1" as="geometry" />
        </mxCell>
        <mxCell id="eoF8KbbVxJdz4AYGsX7u-134" value="10.10.11.0/24" style="edgeLabel;html=1;align=center;verticalAlign=middle;resizable=0;points=[];" parent="eoF8KbbVxJdz4AYGsX7u-133" vertex="1" connectable="0">
          <mxGeometry x="0.1686" y="-3" relative="1" as="geometry">
            <mxPoint as="offset" />
          </mxGeometry>
        </mxCell>
        <mxCell id="eoF8KbbVxJdz4AYGsX7u-139" style="edgeStyle=orthogonalEdgeStyle;rounded=0;orthogonalLoop=1;jettySize=auto;html=1;exitX=0.5;exitY=0;exitDx=0;exitDy=0;entryX=0.5;entryY=1;entryDx=0;entryDy=0;" parent="1" source="eoF8KbbVxJdz4AYGsX7u-85" target="eoF8KbbVxJdz4AYGsX7u-94" edge="1">
          <mxGeometry relative="1" as="geometry" />
        </mxCell>
        <mxCell id="eoF8KbbVxJdz4AYGsX7u-140" value="172.16.11.0/24" style="edgeLabel;html=1;align=center;verticalAlign=middle;resizable=0;points=[];" parent="eoF8KbbVxJdz4AYGsX7u-139" vertex="1" connectable="0">
          <mxGeometry x="0.1" relative="1" as="geometry">
            <mxPoint as="offset" />
          </mxGeometry>
        </mxCell>
        <mxCell id="eoF8KbbVxJdz4AYGsX7u-141" style="edgeStyle=orthogonalEdgeStyle;rounded=0;orthogonalLoop=1;jettySize=auto;html=1;exitX=0.5;exitY=0;exitDx=0;exitDy=0;entryX=0.5;entryY=1;entryDx=0;entryDy=0;" parent="1" source="eoF8KbbVxJdz4AYGsX7u-82" target="eoF8KbbVxJdz4AYGsX7u-91" edge="1">
          <mxGeometry relative="1" as="geometry" />
        </mxCell>
        <mxCell id="eoF8KbbVxJdz4AYGsX7u-142" value="172.16.10.0/24" style="edgeLabel;html=1;align=center;verticalAlign=middle;resizable=0;points=[];" parent="eoF8KbbVxJdz4AYGsX7u-141" vertex="1" connectable="0">
          <mxGeometry x="-0.0778" y="-2" relative="1" as="geometry">
            <mxPoint as="offset" />
          </mxGeometry>
        </mxCell>
        <mxCell id="eoF8KbbVxJdz4AYGsX7u-143" value="" style="sketch=0;outlineConnect=0;fontColor=#232F3E;gradientColor=none;fillColor=#232F3D;strokeColor=none;dashed=0;verticalLabelPosition=bottom;verticalAlign=top;align=center;html=1;fontSize=12;fontStyle=0;aspect=fixed;pointerEvents=1;shape=mxgraph.aws4.traditional_server;" parent="1" vertex="1">
          <mxGeometry x="557.5" y="202" width="45" height="78" as="geometry" />
        </mxCell>
        <mxCell id="eoF8KbbVxJdz4AYGsX7u-144" style="edgeStyle=orthogonalEdgeStyle;rounded=0;orthogonalLoop=1;jettySize=auto;html=1;exitX=0.5;exitY=0;exitDx=0;exitDy=0;" parent="1" source="eoF8KbbVxJdz4AYGsX7u-94" target="eoF8KbbVxJdz4AYGsX7u-143" edge="1">
          <mxGeometry relative="1" as="geometry">
            <mxPoint x="576.25" y="342" as="sourcePoint" />
          </mxGeometry>
        </mxCell>
        <mxCell id="eoF8KbbVxJdz4AYGsX7u-145" value="100.64.20.0/24" style="edgeLabel;html=1;align=center;verticalAlign=middle;resizable=0;points=[];" parent="eoF8KbbVxJdz4AYGsX7u-144" vertex="1" connectable="0">
          <mxGeometry x="-0.0207" relative="1" as="geometry">
            <mxPoint as="offset" />
          </mxGeometry>
        </mxCell>
        <mxCell id="eoF8KbbVxJdz4AYGsX7u-148" style="edgeStyle=orthogonalEdgeStyle;rounded=0;orthogonalLoop=1;jettySize=auto;html=1;exitX=1;exitY=0.5;exitDx=0;exitDy=0;entryX=0;entryY=0.5;entryDx=0;entryDy=0;startArrow=classic;startFill=1;" parent="1" source="eoF8KbbVxJdz4AYGsX7u-82" target="eoF8KbbVxJdz4AYGsX7u-85" edge="1">
          <mxGeometry relative="1" as="geometry" />
        </mxCell>
        <mxCell id="eoF8KbbVxJdz4AYGsX7u-149" value="10.10.12.0/24" style="edgeLabel;html=1;align=center;verticalAlign=middle;resizable=0;points=[];" parent="eoF8KbbVxJdz4AYGsX7u-148" vertex="1" connectable="0">
          <mxGeometry x="-0.07" relative="1" as="geometry">
            <mxPoint as="offset" />
          </mxGeometry>
        </mxCell>
        <mxCell id="eoF8KbbVxJdz4AYGsX7u-154" style="edgeStyle=orthogonalEdgeStyle;rounded=0;orthogonalLoop=1;jettySize=auto;html=1;exitX=1;exitY=0.5;exitDx=0;exitDy=0;exitPerimeter=0;entryX=0.5;entryY=1;entryDx=0;entryDy=0;" parent="1" source="eoF8KbbVxJdz4AYGsX7u-152" target="eoF8KbbVxJdz4AYGsX7u-98" edge="1">
          <mxGeometry relative="1" as="geometry" />
        </mxCell>
        <mxCell id="eoF8KbbVxJdz4AYGsX7u-203" value="100.64.10.0/24" style="edgeLabel;html=1;align=center;verticalAlign=middle;resizable=0;points=[];" parent="eoF8KbbVxJdz4AYGsX7u-154" vertex="1" connectable="0">
          <mxGeometry x="0.2561" y="-3" relative="1" as="geometry">
            <mxPoint as="offset" />
          </mxGeometry>
        </mxCell>
        <mxCell id="eoF8KbbVxJdz4AYGsX7u-152" value="" style="verticalLabelPosition=bottom;html=1;verticalAlign=top;align=center;strokeColor=none;fillColor=#00BEF2;shape=mxgraph.azure.computer;pointerEvents=1;" parent="1" vertex="1">
          <mxGeometry x="280" y="1000" width="50" height="45" as="geometry" />
        </mxCell>
        <mxCell id="eoF8KbbVxJdz4AYGsX7u-156" value="&lt;font face=&quot;Courier New&quot;&gt;mcast-server01&lt;/font&gt;" style="text;html=1;align=left;verticalAlign=middle;whiteSpace=wrap;rounded=0;" parent="1" vertex="1">
          <mxGeometry x="50" y="200" width="105" height="30" as="geometry" />
        </mxCell>
        <mxCell id="eoF8KbbVxJdz4AYGsX7u-157" value="&lt;font face=&quot;Courier New&quot;&gt;mpls-p04&lt;/font&gt;" style="text;html=1;align=left;verticalAlign=middle;whiteSpace=wrap;rounded=0;" parent="1" vertex="1">
          <mxGeometry x="650" y="640" width="70" height="30" as="geometry" />
        </mxCell>
        <mxCell id="eoF8KbbVxJdz4AYGsX7u-158" value="&lt;font face=&quot;Courier New&quot;&gt;mpls-p05&lt;/font&gt;" style="text;html=1;align=left;verticalAlign=middle;whiteSpace=wrap;rounded=0;" parent="1" vertex="1">
          <mxGeometry x="50" y="640" width="70" height="30" as="geometry" />
        </mxCell>
        <mxCell id="eoF8KbbVxJdz4AYGsX7u-159" value="&lt;font face=&quot;Courier New&quot;&gt;.1&lt;/font&gt;" style="text;html=1;align=left;verticalAlign=middle;whiteSpace=wrap;rounded=0;" parent="1" vertex="1">
          <mxGeometry x="444" y="750" width="30" height="30" as="geometry" />
        </mxCell>
        <mxCell id="eoF8KbbVxJdz4AYGsX7u-160" value="&lt;font face=&quot;Courier New&quot;&gt;.1&lt;/font&gt;" style="text;html=1;align=left;verticalAlign=middle;whiteSpace=wrap;rounded=0;" parent="1" vertex="1">
          <mxGeometry x="292.32" y="750" width="30" height="30" as="geometry" />
        </mxCell>
        <mxCell id="eoF8KbbVxJdz4AYGsX7u-162" value="&lt;font face=&quot;Courier New&quot;&gt;.5&lt;/font&gt;" style="text;html=1;align=left;verticalAlign=middle;whiteSpace=wrap;rounded=0;" parent="1" vertex="1">
          <mxGeometry x="177.5" y="700" width="25" height="30" as="geometry" />
        </mxCell>
        <mxCell id="eoF8KbbVxJdz4AYGsX7u-163" value="&lt;font face=&quot;Courier New&quot;&gt;.5&lt;/font&gt;" style="text;html=1;align=left;verticalAlign=middle;whiteSpace=wrap;rounded=0;" parent="1" vertex="1">
          <mxGeometry x="180" y="610" width="22.5" height="30" as="geometry" />
        </mxCell>
        <mxCell id="eoF8KbbVxJdz4AYGsX7u-164" value="&lt;font face=&quot;Courier New&quot;&gt;.3&lt;/font&gt;" style="text;html=1;align=left;verticalAlign=middle;whiteSpace=wrap;rounded=0;" parent="1" vertex="1">
          <mxGeometry x="180" y="550" width="22.5" height="30" as="geometry" />
        </mxCell>
        <mxCell id="eoF8KbbVxJdz4AYGsX7u-165" value="&lt;font face=&quot;Courier New&quot;&gt;.3&lt;/font&gt;" style="text;html=1;align=left;verticalAlign=middle;whiteSpace=wrap;rounded=0;" parent="1" vertex="1">
          <mxGeometry x="180" y="460" width="22.5" height="30" as="geometry" />
        </mxCell>
        <mxCell id="eoF8KbbVxJdz4AYGsX7u-166" style="edgeStyle=orthogonalEdgeStyle;rounded=0;orthogonalLoop=1;jettySize=auto;html=1;exitX=0.5;exitY=0;exitDx=0;exitDy=0;" parent="1" source="eoF8KbbVxJdz4AYGsX7u-91" target="eoF8KbbVxJdz4AYGsX7u-16" edge="1">
          <mxGeometry relative="1" as="geometry">
            <mxPoint x="180" y="350" as="sourcePoint" />
          </mxGeometry>
        </mxCell>
        <mxCell id="eoF8KbbVxJdz4AYGsX7u-167" value="100.64.21.0/24" style="edgeLabel;html=1;align=center;verticalAlign=middle;resizable=0;points=[];" parent="eoF8KbbVxJdz4AYGsX7u-166" vertex="1" connectable="0">
          <mxGeometry x="0.0175" y="1" relative="1" as="geometry">
            <mxPoint as="offset" />
          </mxGeometry>
        </mxCell>
        <mxCell id="eoF8KbbVxJdz4AYGsX7u-168" value="&lt;font face=&quot;Courier New&quot;&gt;.4&lt;/font&gt;" style="text;html=1;align=left;verticalAlign=middle;whiteSpace=wrap;rounded=0;" parent="1" vertex="1">
          <mxGeometry x="580" y="700" width="25" height="30" as="geometry" />
        </mxCell>
        <mxCell id="eoF8KbbVxJdz4AYGsX7u-169" value="&lt;font face=&quot;Courier New&quot;&gt;.4&lt;/font&gt;" style="text;html=1;align=left;verticalAlign=middle;whiteSpace=wrap;rounded=0;" parent="1" vertex="1">
          <mxGeometry x="580" y="610" width="25" height="30" as="geometry" />
        </mxCell>
        <mxCell id="eoF8KbbVxJdz4AYGsX7u-171" value="&lt;font face=&quot;Courier New&quot;&gt;.2&lt;/font&gt;" style="text;html=1;align=left;verticalAlign=middle;whiteSpace=wrap;rounded=0;" parent="1" vertex="1">
          <mxGeometry x="580" y="550" width="25" height="30" as="geometry" />
        </mxCell>
        <mxCell id="eoF8KbbVxJdz4AYGsX7u-172" value="&lt;font face=&quot;Courier New&quot;&gt;.2&lt;/font&gt;" style="text;html=1;align=left;verticalAlign=middle;whiteSpace=wrap;rounded=0;" parent="1" vertex="1">
          <mxGeometry x="580" y="460" width="25" height="30" as="geometry" />
        </mxCell>
        <mxCell id="eoF8KbbVxJdz4AYGsX7u-173" value="&lt;font face=&quot;Courier New&quot;&gt;.2&lt;/font&gt;" style="text;html=1;align=left;verticalAlign=middle;whiteSpace=wrap;rounded=0;" parent="1" vertex="1">
          <mxGeometry x="495" y="520" width="25" height="30" as="geometry" />
        </mxCell>
        <mxCell id="eoF8KbbVxJdz4AYGsX7u-174" value="&lt;font face=&quot;Courier New&quot;&gt;.3&lt;/font&gt;" style="text;html=1;align=left;verticalAlign=middle;whiteSpace=wrap;rounded=0;" parent="1" vertex="1">
          <mxGeometry x="240" y="520" width="22.5" height="30" as="geometry" />
        </mxCell>
        <mxCell id="eoF8KbbVxJdz4AYGsX7u-176" value="&lt;font face=&quot;Courier New&quot;&gt;.1&lt;/font&gt;" style="text;html=1;align=left;verticalAlign=middle;whiteSpace=wrap;rounded=0;" parent="1" vertex="1">
          <mxGeometry x="180" y="410" width="22.5" height="30" as="geometry" />
        </mxCell>
        <mxCell id="eoF8KbbVxJdz4AYGsX7u-67" value="&lt;font face=&quot;Courier New&quot;&gt;24&lt;/font&gt;" style="text;html=1;align=left;verticalAlign=middle;whiteSpace=wrap;rounded=0;" parent="1" vertex="1">
          <mxGeometry x="170" y="250" width="20" height="30" as="geometry" />
        </mxCell>
        <mxCell id="eoF8KbbVxJdz4AYGsX7u-178" value="&lt;font face=&quot;Courier New&quot;&gt;.20&lt;/font&gt;" style="text;html=1;align=left;verticalAlign=middle;whiteSpace=wrap;rounded=0;" parent="1" vertex="1">
          <mxGeometry x="580" y="410" width="25" height="30" as="geometry" />
        </mxCell>
        <mxCell id="eoF8KbbVxJdz4AYGsX7u-179" value="&lt;font face=&quot;Courier New&quot;&gt;.1&lt;/font&gt;" style="text;html=1;align=left;verticalAlign=middle;whiteSpace=wrap;rounded=0;" parent="1" vertex="1">
          <mxGeometry x="581.25" y="320" width="22.5" height="30" as="geometry" />
        </mxCell>
        <mxCell id="eoF8KbbVxJdz4AYGsX7u-180" value="&lt;font face=&quot;Courier New&quot;&gt;.2&lt;/font&gt;" style="text;html=1;align=left;verticalAlign=middle;whiteSpace=wrap;rounded=0;" parent="1" vertex="1">
          <mxGeometry x="182.5" y="330" width="25" height="30" as="geometry" />
        </mxCell>
        <mxCell id="eoF8KbbVxJdz4AYGsX7u-181" value="&lt;font face=&quot;Courier New&quot;&gt;.11&lt;/font&gt;" style="text;html=1;align=left;verticalAlign=middle;whiteSpace=wrap;rounded=0;" parent="1" vertex="1">
          <mxGeometry x="580" y="280" width="30" height="30" as="geometry" />
        </mxCell>
        <mxCell id="eoF8KbbVxJdz4AYGsX7u-182" value="&lt;font face=&quot;Courier New&quot;&gt;.12&lt;/font&gt;" style="text;html=1;align=left;verticalAlign=middle;whiteSpace=wrap;rounded=0;" parent="1" vertex="1">
          <mxGeometry x="180" y="278" width="30" height="30" as="geometry" />
        </mxCell>
        <mxCell id="eoF8KbbVxJdz4AYGsX7u-184" style="edgeStyle=orthogonalEdgeStyle;rounded=0;orthogonalLoop=1;jettySize=auto;html=1;exitX=0.5;exitY=0;exitDx=0;exitDy=0;entryX=0.5;entryY=1;entryDx=0;entryDy=0;startArrow=classic;startFill=1;" parent="1" source="eoF8KbbVxJdz4AYGsX7u-98" target="eoF8KbbVxJdz4AYGsX7u-73" edge="1">
          <mxGeometry relative="1" as="geometry" />
        </mxCell>
        <mxCell id="eoF8KbbVxJdz4AYGsX7u-185" value="192.168.10.0/24" style="edgeLabel;html=1;align=center;verticalAlign=middle;resizable=0;points=[];" parent="eoF8KbbVxJdz4AYGsX7u-184" vertex="1" connectable="0">
          <mxGeometry x="-0.116" y="-2" relative="1" as="geometry">
            <mxPoint as="offset" />
          </mxGeometry>
        </mxCell>
        <mxCell id="eoF8KbbVxJdz4AYGsX7u-188" value="&lt;font face=&quot;Courier New&quot;&gt;27&lt;/font&gt;" style="text;html=1;align=left;verticalAlign=middle;whiteSpace=wrap;rounded=0;" parent="1" vertex="1">
          <mxGeometry x="566.25" y="242" width="20" height="30" as="geometry" />
        </mxCell>
        <mxCell id="eoF8KbbVxJdz4AYGsX7u-189" value="&lt;font face=&quot;Courier New&quot;&gt;28&lt;/font&gt;" style="text;html=1;align=left;verticalAlign=middle;whiteSpace=wrap;rounded=0;" parent="1" vertex="1">
          <mxGeometry x="295" y="1007.5" width="20" height="30" as="geometry" />
        </mxCell>
        <mxCell id="eoF8KbbVxJdz4AYGsX7u-190" value="" style="sketch=0;outlineConnect=0;fontColor=#232F3E;gradientColor=none;fillColor=#232F3D;strokeColor=none;dashed=0;verticalLabelPosition=bottom;verticalAlign=top;align=center;html=1;fontSize=12;fontStyle=0;aspect=fixed;pointerEvents=1;shape=mxgraph.aws4.traditional_server;" parent="1" vertex="1">
          <mxGeometry x="359.82" y="341" width="45" height="78" as="geometry" />
        </mxCell>
        <mxCell id="eoF8KbbVxJdz4AYGsX7u-191" style="edgeStyle=orthogonalEdgeStyle;rounded=0;orthogonalLoop=1;jettySize=auto;html=1;exitX=1;exitY=0.5;exitDx=0;exitDy=0;" parent="1" source="eoF8KbbVxJdz4AYGsX7u-91" target="eoF8KbbVxJdz4AYGsX7u-190" edge="1">
          <mxGeometry relative="1" as="geometry" />
        </mxCell>
        <mxCell id="eoF8KbbVxJdz4AYGsX7u-195" value="172.16.12.0/24" style="edgeLabel;html=1;align=center;verticalAlign=middle;resizable=0;points=[];" parent="eoF8KbbVxJdz4AYGsX7u-191" vertex="1" connectable="0">
          <mxGeometry x="-0.0686" y="-4" relative="1" as="geometry">
            <mxPoint as="offset" />
          </mxGeometry>
        </mxCell>
        <mxCell id="eoF8KbbVxJdz4AYGsX7u-192" style="edgeStyle=orthogonalEdgeStyle;rounded=0;orthogonalLoop=1;jettySize=auto;html=1;exitX=0;exitY=0.5;exitDx=0;exitDy=0;" parent="1" source="eoF8KbbVxJdz4AYGsX7u-94" target="eoF8KbbVxJdz4AYGsX7u-190" edge="1">
          <mxGeometry relative="1" as="geometry" />
        </mxCell>
        <mxCell id="eoF8KbbVxJdz4AYGsX7u-196" value="172.16.13.0/24" style="edgeLabel;html=1;align=center;verticalAlign=middle;resizable=0;points=[];" parent="eoF8KbbVxJdz4AYGsX7u-192" vertex="1" connectable="0">
          <mxGeometry x="0.0314" y="1" relative="1" as="geometry">
            <mxPoint as="offset" />
          </mxGeometry>
        </mxCell>
        <mxCell id="eoF8KbbVxJdz4AYGsX7u-193" value="&lt;font face=&quot;Courier New&quot;&gt;29&lt;/font&gt;" style="text;html=1;align=left;verticalAlign=middle;whiteSpace=wrap;rounded=0;" parent="1" vertex="1">
          <mxGeometry x="372.32" y="380" width="20" height="30" as="geometry" />
        </mxCell>
        <mxCell id="eoF8KbbVxJdz4AYGsX7u-194" value="&lt;div align=&quot;center&quot;&gt;&lt;font face=&quot;Courier New&quot;&gt;rp-01&lt;/font&gt;&lt;/div&gt;" style="text;html=1;align=center;verticalAlign=middle;whiteSpace=wrap;rounded=0;" parent="1" vertex="1">
          <mxGeometry x="322.32" y="308" width="115" height="30" as="geometry" />
        </mxCell>
        <mxCell id="eoF8KbbVxJdz4AYGsX7u-197" value="&lt;font face=&quot;Courier New&quot;&gt;.1&lt;/font&gt;" style="text;html=1;align=left;verticalAlign=middle;whiteSpace=wrap;rounded=0;" parent="1" vertex="1">
          <mxGeometry x="240" y="380" width="22.5" height="30" as="geometry" />
        </mxCell>
        <mxCell id="eoF8KbbVxJdz4AYGsX7u-198" value="&lt;font face=&quot;Courier New&quot;&gt;.2&lt;/font&gt;" style="text;html=1;align=left;verticalAlign=middle;whiteSpace=wrap;rounded=0;" parent="1" vertex="1">
          <mxGeometry x="495" y="380" width="25" height="30" as="geometry" />
        </mxCell>
        <mxCell id="eoF8KbbVxJdz4AYGsX7u-199" value="&lt;font face=&quot;Courier New&quot;&gt;.10&lt;/font&gt;" style="text;html=1;align=left;verticalAlign=middle;whiteSpace=wrap;rounded=0;" parent="1" vertex="1">
          <mxGeometry x="330" y="380" width="30" height="30" as="geometry" />
        </mxCell>
        <mxCell id="eoF8KbbVxJdz4AYGsX7u-200" value="&lt;font face=&quot;Courier New&quot;&gt;.10&lt;/font&gt;" style="text;html=1;align=left;verticalAlign=middle;whiteSpace=wrap;rounded=0;" parent="1" vertex="1">
          <mxGeometry x="404.82" y="380" width="30" height="30" as="geometry" />
        </mxCell>
        <mxCell id="eoF8KbbVxJdz4AYGsX7u-201" value="&lt;h4&gt;MPLS and Multicast&lt;br&gt;&lt;/h4&gt;&lt;ol&gt;&lt;li align=&quot;left&quot;&gt;ISIS for all internal routing (Done)&lt;br&gt;&lt;/li&gt;&lt;li align=&quot;left&quot;&gt;RPF between s-router01 and mpls-p01&lt;/li&gt;&lt;li align=&quot;left&quot;&gt;Receive multicast stream from mcast-server01 by mcast-client01 with rp-01 as RP&lt;/li&gt;&lt;li align=&quot;left&quot;&gt;Receive multicast stream from mcast-server02 by mcast-client02 with rp-01 as RP over MPLS link between s-router01 and n-router02&lt;/li&gt;&lt;li align=&quot;left&quot;&gt;Configure MPLS Pw between s-router01 and mpls-p01, and transport two vlans over it, with mcast-client01 in vlan 100 and mcast-client02 i vlan 200 so that they are able to ping say rp-01&lt;/li&gt;&lt;/ol&gt;&lt;div&gt;&lt;br&gt;&lt;/div&gt;" style="text;html=1;align=left;verticalAlign=top;whiteSpace=wrap;rounded=0;" parent="1" vertex="1">
          <mxGeometry x="40" y="40" width="760" height="160" as="geometry" />
        </mxCell>
        <mxCell id="eoF8KbbVxJdz4AYGsX7u-202" value="&lt;h4&gt;Note:&lt;/h4&gt;&lt;div&gt;&lt;ul&gt;&lt;li&gt;All device has a management ip configured as &lt;font face=&quot;Courier New&quot;&gt;192.168.201.xx&lt;/font&gt; where &lt;font face=&quot;Courier New&quot;&gt;xx&lt;/font&gt; is the number given inside the device&lt;br&gt;&lt;/li&gt;&lt;li&gt;All devices are configured with loopback address in following format: &lt;font face=&quot;Courier New&quot;&gt;10.255.xx.1/24.&lt;/font&gt;&lt;/li&gt;&lt;li&gt;All devices can be access remotely using &lt;font face=&quot;Courier New&quot;&gt;ssh -p 220xx mettle@202.191.67.60.&lt;/font&gt;&lt;/li&gt;&lt;/ul&gt;&lt;div&gt;&lt;br&gt;&lt;/div&gt;&lt;/div&gt;" style="text;html=1;align=left;verticalAlign=middle;whiteSpace=wrap;rounded=0;" parent="1" vertex="1">
          <mxGeometry x="40" y="1050" width="760" height="80" as="geometry" />
        </mxCell>
      </root>
    </mxGraphModel>
  </diagram>
</mxfile>
